<svg id="visual" viewBox="0 0 1920 1080" width="1920" height="1080" xmlns="http://www.w3.org/2000/svg" xmlns:xlink="http://www.w3.org/1999/xlink" version="1.1"><rect x="0" y="0" width="1920" height="1080" fill="#1e1e2e"></rect><defs><linearGradient id="grad1_0" x1="43.8%" y1="0%" x2="100%" y2="100%"><stop offset="14.444444444444446%" stop-color="#45475a" stop-opacity="1"></stop><stop offset="85.55555555555554%" stop-color="#45475a" stop-opacity="1"></stop></linearGradient></defs><defs><linearGradient id="grad1_1" x1="43.8%" y1="0%" x2="100%" y2="100%"><stop offset="14.444444444444446%" stop-color="#45475a" stop-opacity="1"></stop><stop offset="85.55555555555554%" stop-color="#1e1e2e" stop-opacity="1"></stop></linearGradient></defs><defs><linearGradient id="grad2_0" x1="0%" y1="0%" x2="56.3%" y2="100%"><stop offset="14.444444444444446%" stop-color="#45475a" stop-opacity="1"></stop><stop offset="85.55555555555554%" stop-color="#45475a" stop-opacity="1"></stop></linearGradient></defs><defs><linearGradient id="grad2_1" x1="0%" y1="0%" x2="56.3%" y2="100%"><stop offset="14.444444444444446%" stop-color="#1e1e2e" stop-opacity="1"></stop><stop offset="85.55555555555554%" stop-color="#45475a" stop-opacity="1"></stop></linearGradient></defs><g transform="translate(1920, 0)"><path d="M0 972C-85 913.4 -169.9 854.9 -269.5 829.3C-369 803.8 -483.1 811.3 -551.3 758.9C-619.6 706.4 -642.1 594 -705.5 512.5C-768.9 431.1 -873.2 380.6 -924.4 300.4C-975.7 220.1 -973.8 110.1 -972 0L0 0Z" fill="#313243"></path><path d="M0 486C-42.5 456.7 -85 427.4 -134.7 414.7C-184.5 401.9 -241.5 405.7 -275.7 379.4C-309.8 353.2 -321 297 -352.7 256.3C-384.4 215.6 -436.6 190.3 -462.2 150.2C-487.8 110.1 -486.9 55 -486 0L0 0Z" fill="#45475a"></path></g><g transform="translate(0, 1080)"><path d="M0 -972C78.6 -886.2 157.3 -800.4 252.8 -778C348.3 -755.5 460.7 -796.3 563.1 -775C665.5 -753.8 757.9 -670.3 786.4 -571.3C814.9 -472.3 779.5 -357.7 799.8 -259.9C820.1 -162.1 896.1 -81 972 0L0 0Z" fill="#313243"></path><path d="M0 -486C39.3 -443.1 78.6 -400.2 126.4 -389C174.1 -377.7 230.4 -398.2 281.5 -387.5C332.7 -376.9 378.9 -335.2 393.2 -285.7C407.4 -236.2 389.8 -178.9 399.9 -129.9C410.1 -81 448 -40.5 486 0L0 0Z" fill="#45475a"></path></g></svg>